<svg width="134" height="45" viewBox="0 0 134 45" fill="none" xmlns="http://www.w3.org/2000/svg">
<rect width="129" height="45" rx="22.5" fill="#44D4F4"/>
<path d="M29.76 21.784H32.176L35.824 27H33.12L29.76 21.784ZM27.216 15.8H29.504V27H27.216V15.8ZM28.608 17.752V15.8H30.976C31.8613 15.8 32.6133 15.9493 33.232 16.248C33.8507 16.5467 34.3253 16.9627 34.656 17.496C34.9867 18.0293 35.152 18.6533 35.152 19.368C35.152 20.072 34.9867 20.696 34.656 21.24C34.3253 21.7733 33.8507 22.1893 33.232 22.488C32.6133 22.7867 31.8613 22.936 30.976 22.936H28.608V21.112H30.832C31.2373 21.112 31.584 21.048 31.872 20.92C32.1707 20.7813 32.4 20.5893 32.56 20.344C32.72 20.088 32.8 19.784 32.8 19.432C32.8 19.08 32.72 18.7813 32.56 18.536C32.4 18.28 32.1707 18.088 31.872 17.96C31.584 17.8213 31.2373 17.752 30.832 17.752H28.608ZM40.4179 27.16C39.6179 27.16 38.9192 27 38.3219 26.68C37.7245 26.36 37.2605 25.9173 36.9299 25.352C36.6099 24.776 36.4499 24.0987 36.4499 23.32C36.4499 22.5307 36.6099 21.8533 36.9299 21.288C37.2605 20.712 37.7245 20.2693 38.3219 19.96C38.9192 19.64 39.6232 19.48 40.4339 19.48C41.2445 19.48 41.9325 19.6293 42.4979 19.928C43.0739 20.216 43.5112 20.6427 43.8099 21.208C44.1085 21.7627 44.2579 22.4347 44.2579 23.224C44.2579 23.32 44.2525 23.4213 44.2419 23.528C44.2419 23.6347 44.2365 23.72 44.2259 23.784H37.6339V22.504H42.4179L41.8579 23.24C41.9005 23.176 41.9379 23.0907 41.9699 22.984C42.0125 22.8667 42.0339 22.7707 42.0339 22.696C42.0339 22.3333 41.9645 22.024 41.8259 21.768C41.6979 21.512 41.5112 21.3093 41.2659 21.16C41.0205 21.0107 40.7325 20.936 40.4019 20.936C39.9965 20.936 39.6552 21.0267 39.3779 21.208C39.1112 21.3787 38.9032 21.64 38.7539 21.992C38.6152 22.3333 38.5405 22.76 38.5299 23.272C38.5299 23.7627 38.5992 24.1787 38.7379 24.52C38.8872 24.8613 39.1059 25.1227 39.3939 25.304C39.6819 25.4853 40.0285 25.576 40.4339 25.576C40.8925 25.576 41.2819 25.4907 41.6019 25.32C41.9325 25.1387 42.2045 24.872 42.4179 24.52L44.2259 25.08C43.8419 25.7733 43.3299 26.296 42.6899 26.648C42.0605 26.9893 41.3032 27.16 40.4179 27.16ZM47.2929 24.712C47.2929 24.9253 47.3462 25.112 47.4529 25.272C47.5595 25.4213 47.7035 25.5387 47.8849 25.624C48.0769 25.6987 48.2849 25.736 48.5089 25.736C48.8289 25.736 49.1169 25.672 49.3729 25.544C49.6289 25.4053 49.8369 25.2133 49.9969 24.968C50.1569 24.712 50.2369 24.408 50.2369 24.056L50.4929 25.016C50.4929 25.4853 50.3595 25.88 50.0929 26.2C49.8369 26.52 49.5009 26.76 49.0849 26.92C48.6795 27.08 48.2529 27.16 47.8049 27.16C47.3462 27.16 46.9195 27.0693 46.5249 26.888C46.1302 26.7067 45.8102 26.4453 45.5649 26.104C45.3302 25.752 45.2129 25.3253 45.2129 24.824C45.2129 24.1093 45.4635 23.544 45.9649 23.128C46.4662 22.712 47.1755 22.504 48.0929 22.504C48.5622 22.504 48.9729 22.552 49.3249 22.648C49.6875 22.744 49.9915 22.8613 50.2369 23C50.4822 23.1387 50.6582 23.272 50.7649 23.4V24.36C50.4769 24.1467 50.1515 23.9867 49.7889 23.88C49.4369 23.7733 49.0635 23.72 48.6689 23.72C48.3489 23.72 48.0875 23.7627 47.8849 23.848C47.6822 23.9227 47.5329 24.0347 47.4369 24.184C47.3409 24.3227 47.2929 24.4987 47.2929 24.712ZM46.4929 21.72L45.7249 20.312C46.1089 20.1093 46.5782 19.9173 47.1329 19.736C47.6875 19.544 48.3062 19.448 48.9889 19.448C49.6182 19.448 50.1782 19.5387 50.6689 19.72C51.1595 19.9013 51.5435 20.168 51.8209 20.52C52.0982 20.8613 52.2369 21.2827 52.2369 21.784V27H50.2369V22.216C50.2369 22.0133 50.2049 21.8427 50.1409 21.704C50.0769 21.5547 49.9755 21.432 49.8369 21.336C49.7089 21.24 49.5542 21.1707 49.3729 21.128C49.1915 21.0853 48.9889 21.064 48.7649 21.064C48.4235 21.064 48.0982 21.1013 47.7889 21.176C47.4795 21.2507 47.2129 21.3413 46.9889 21.448C46.7649 21.5547 46.5995 21.6453 46.4929 21.72ZM59.7166 14.52H61.7966V27H59.7166V14.52ZM53.6686 23.32C53.6686 22.4987 53.834 21.8053 54.1646 21.24C54.4953 20.664 54.9326 20.2267 55.4766 19.928C56.0206 19.6293 56.5966 19.48 57.2046 19.48C57.8233 19.48 58.3673 19.6347 58.8366 19.944C59.3166 20.2533 59.69 20.696 59.9566 21.272C60.234 21.8373 60.3726 22.52 60.3726 23.32C60.3726 24.1093 60.234 24.792 59.9566 25.368C59.69 25.944 59.3166 26.3867 58.8366 26.696C58.3673 27.0053 57.8233 27.16 57.2046 27.16C56.5966 27.16 56.0206 27.0107 55.4766 26.712C54.9326 26.4133 54.4953 25.976 54.1646 25.4C53.834 24.824 53.6686 24.1307 53.6686 23.32ZM55.8126 23.32C55.8126 23.7573 55.9033 24.136 56.0846 24.456C56.266 24.776 56.5113 25.0213 56.8206 25.192C57.13 25.3627 57.4606 25.448 57.8126 25.448C58.122 25.448 58.4206 25.368 58.7086 25.208C59.0073 25.0373 59.2473 24.792 59.4286 24.472C59.6206 24.152 59.7166 23.768 59.7166 23.32C59.7166 22.872 59.6206 22.488 59.4286 22.168C59.2473 21.848 59.0073 21.608 58.7086 21.448C58.4206 21.2773 58.122 21.192 57.8126 21.192C57.4606 21.192 57.13 21.2773 56.8206 21.448C56.5113 21.6187 56.266 21.864 56.0846 22.184C55.9033 22.504 55.8126 22.8827 55.8126 23.32ZM71.2425 20.712L70.5225 27H68.1385L69.8025 15.24L74.4905 22.472L79.1785 15.24L80.8425 27H78.4585L77.7385 20.712L74.4905 25.96L71.2425 20.712ZM81.9499 23.32C81.9499 22.552 82.1259 21.88 82.4779 21.304C82.8405 20.728 83.3259 20.28 83.9339 19.96C84.5525 19.64 85.2512 19.48 86.0299 19.48C86.8085 19.48 87.5019 19.64 88.1099 19.96C88.7285 20.28 89.2139 20.728 89.5659 21.304C89.9285 21.88 90.1099 22.552 90.1099 23.32C90.1099 24.0773 89.9285 24.7493 89.5659 25.336C89.2139 25.912 88.7285 26.36 88.1099 26.68C87.5019 27 86.8085 27.16 86.0299 27.16C85.2512 27.16 84.5525 27 83.9339 26.68C83.3259 26.36 82.8405 25.912 82.4779 25.336C82.1259 24.7493 81.9499 24.0773 81.9499 23.32ZM84.0619 23.32C84.0619 23.736 84.1472 24.104 84.3179 24.424C84.4992 24.7333 84.7392 24.9787 85.0379 25.16C85.3365 25.3307 85.6672 25.416 86.0299 25.416C86.3925 25.416 86.7232 25.3307 87.0219 25.16C87.3205 24.9787 87.5552 24.7333 87.7259 24.424C87.9072 24.104 87.9979 23.736 87.9979 23.32C87.9979 22.904 87.9072 22.536 87.7259 22.216C87.5552 21.896 87.3205 21.6507 87.0219 21.48C86.7232 21.3093 86.3925 21.224 86.0299 21.224C85.6672 21.224 85.3365 21.3093 85.0379 21.48C84.7392 21.6507 84.4992 21.896 84.3179 22.216C84.1472 22.536 84.0619 22.904 84.0619 23.32ZM93.6966 19.64V27H91.6646V19.64H93.6966ZM95.8566 21.8C95.718 21.672 95.574 21.576 95.4246 21.512C95.286 21.4373 95.11 21.4 94.8966 21.4C94.6406 21.4 94.422 21.4693 94.2406 21.608C94.0593 21.7467 93.9206 21.944 93.8246 22.2C93.7393 22.4453 93.6966 22.744 93.6966 23.096L93.1206 22.52C93.1206 21.9333 93.2326 21.416 93.4566 20.968C93.6806 20.5093 93.974 20.1467 94.3366 19.88C94.6993 19.6027 95.0726 19.464 95.4566 19.464C95.7233 19.464 95.974 19.512 96.2086 19.608C96.454 19.704 96.6513 19.848 96.8006 20.04L95.8566 21.8ZM101.137 27.16C100.337 27.16 99.638 27 99.0406 26.68C98.4433 26.36 97.9793 25.9173 97.6486 25.352C97.3286 24.776 97.1686 24.0987 97.1686 23.32C97.1686 22.5307 97.3286 21.8533 97.6486 21.288C97.9793 20.712 98.4433 20.2693 99.0406 19.96C99.638 19.64 100.342 19.48 101.153 19.48C101.963 19.48 102.651 19.6293 103.217 19.928C103.793 20.216 104.23 20.6427 104.529 21.208C104.827 21.7627 104.977 22.4347 104.977 23.224C104.977 23.32 104.971 23.4213 104.961 23.528C104.961 23.6347 104.955 23.72 104.945 23.784H98.3526V22.504H103.137L102.577 23.24C102.619 23.176 102.657 23.0907 102.689 22.984C102.731 22.8667 102.753 22.7707 102.753 22.696C102.753 22.3333 102.683 22.024 102.545 21.768C102.417 21.512 102.23 21.3093 101.985 21.16C101.739 21.0107 101.451 20.936 101.121 20.936C100.715 20.936 100.374 21.0267 100.097 21.208C99.83 21.3787 99.622 21.64 99.4726 21.992C99.334 22.3333 99.2593 22.76 99.2486 23.272C99.2486 23.7627 99.318 24.1787 99.4566 24.52C99.606 24.8613 99.8246 25.1227 100.113 25.304C100.401 25.4853 100.747 25.576 101.153 25.576C101.611 25.576 102.001 25.4907 102.321 25.32C102.651 25.1387 102.923 24.872 103.137 24.52L104.945 25.08C104.561 25.7733 104.049 26.296 103.409 26.648C102.779 26.9893 102.022 27.16 101.137 27.16Z" fill="black"/>
</svg>
